<svg width="40" height="40" viewBox="0 0 40 40" fill="none" xmlns="http://www.w3.org/2000/svg">
<path fill-rule="evenodd" clip-rule="evenodd" d="M10.8917 21.9042C11.6933 22.8842 13.7333 26.515 14.1667 28.3333H25.8333C26.2667 26.5167 28.3042 22.8858 29.1058 21.9067C30.4757 20.2356 31.3381 18.2069 31.5908 16.0608C31.8401 13.9189 31.4672 11.7506 30.5167 9.81501C29.5571 7.86508 28.0651 6.22664 26.2133 5.08918C24.3452 3.94016 22.1948 3.33231 20.0017 3.33334C17.8042 3.33334 15.6508 3.94168 13.79 5.08751C11.9377 6.22454 10.4452 7.8627 9.48499 9.81251C8.5339 11.7473 8.16012 13.9151 8.40832 16.0567C8.65749 18.1958 9.51832 20.2233 10.8917 21.9042ZM20.8333 10L15.8333 17.5H19.1667V22.5L24.1667 15H20.8333V10Z" fill="url(#paint0_linear_4_81)"/>
<path d="M14.1666 30.8333C14.1666 30.6123 14.2544 30.4004 14.4107 30.2441C14.567 30.0878 14.7789 30 15 30H25C25.221 30 25.4329 30.0878 25.5892 30.2441C25.7455 30.4004 25.8333 30.6123 25.8333 30.8333C25.8333 31.0543 25.7455 31.2663 25.5892 31.4226C25.4329 31.5789 25.221 31.6667 25 31.6667H15C14.7789 31.6667 14.567 31.5789 14.4107 31.4226C14.2544 31.2663 14.1666 31.0543 14.1666 30.8333ZM25.8333 33.3333H14.1666V35C14.1666 35.442 14.3422 35.866 14.6548 36.1785C14.9673 36.4911 15.3913 36.6667 15.8333 36.6667H24.1666C24.6087 36.6667 25.0326 36.4911 25.3451 36.1785C25.6577 35.866 25.8333 35.442 25.8333 35V33.3333Z" fill="url(#paint1_linear_4_81)"/>
<defs>
<linearGradient id="paint0_linear_4_81" x1="19.9999" y1="3.33334" x2="19.9999" y2="28.3333" gradientUnits="userSpaceOnUse">
<stop/>
<stop offset="1" stop-color="#002992"/>
</linearGradient>
<linearGradient id="paint1_linear_4_81" x1="20" y1="30" x2="20" y2="36.6667" gradientUnits="userSpaceOnUse">
<stop/>
<stop offset="1" stop-color="#002992"/>
</linearGradient>
</defs>
</svg>
