<svg width="28" height="28" viewBox="0 0 28 28" fill="none" xmlns="http://www.w3.org/2000/svg">
<path d="M11.6666 21C13.7375 20.9996 15.7486 20.3063 17.3798 19.0307L22.5085 24.1593L24.1581 22.5097L19.0295 17.381C20.3058 15.7496 20.9995 13.738 21 11.6667C21 6.52051 16.8128 2.33334 11.6666 2.33334C6.52048 2.33334 2.33331 6.52051 2.33331 11.6667C2.33331 16.8128 6.52048 21 11.6666 21ZM11.6666 4.66668C15.5271 4.66668 18.6666 7.80618 18.6666 11.6667C18.6666 15.5272 15.5271 18.6667 11.6666 18.6667C7.80615 18.6667 4.66665 15.5272 4.66665 11.6667C4.66665 7.80618 7.80615 4.66668 11.6666 4.66668Z" fill="white"/>
</svg>
