<svg width="44" height="44" viewBox="0 0 44 44" fill="none" xmlns="http://www.w3.org/2000/svg">
<path d="M32.6562 1.375H11.3438C10.6147 1.37582 9.91566 1.66581 9.40011 2.18136C8.88456 2.69691 8.59457 3.39591 8.59375 4.125V39.875C8.59457 40.6041 8.88456 41.3031 9.40011 41.8186C9.91566 42.3342 10.6147 42.6242 11.3438 42.625H32.6562C33.3853 42.6242 34.0843 42.3342 34.5999 41.8186C35.1154 41.3031 35.4054 40.6041 35.4062 39.875V4.125C35.4054 3.39591 35.1154 2.69691 34.5999 2.18136C34.0843 1.66581 33.3853 1.37582 32.6562 1.375ZM32.6562 4.125V6.875H11.3438V4.125H32.6562ZM32.6562 9.625L32.6572 28.875H11.3438V9.625H32.6562ZM32.6562 39.875H11.3438V31.625H32.6576V39.875H32.6562Z" fill="#8B8B8B"/>
<path d="M20.625 34.375H23.375V37.125H20.625V34.375Z" fill="#8B8B8B"/>
</svg>
