<svg width="100" height="100" viewBox="0 0 100 100" fill="none" xmlns="http://www.w3.org/2000/svg">
<path d="M50 87.5C54.9246 87.5 59.8009 86.53 64.3506 84.6455C68.9003 82.7609 73.0343 79.9987 76.5165 76.5165C79.9987 73.0343 82.7609 68.9003 84.6455 64.3506C86.53 59.8009 87.5 54.9246 87.5 50C87.5 45.0754 86.53 40.1991 84.6455 35.6494C82.7609 31.0997 79.9987 26.9657 76.5165 23.4835C73.0343 20.0013 68.9003 17.2391 64.3506 15.3545C59.8009 13.47 54.9246 12.5 50 12.5C40.0544 12.5 30.5161 16.4509 23.4835 23.4835C16.4509 30.5161 12.5 40.0544 12.5 50C12.5 59.9456 16.4509 69.4839 23.4835 76.5165C30.5161 83.5491 40.0544 87.5 50 87.5ZM50 93.75C38.3968 93.75 27.2688 89.1406 19.0641 80.9359C10.8594 72.7312 6.25 61.6032 6.25 50C6.25 38.3968 10.8594 27.2688 19.0641 19.0641C27.2688 10.8594 38.3968 6.25 50 6.25C61.6032 6.25 72.7312 10.8594 80.9359 19.0641C89.1406 27.2688 93.75 38.3968 93.75 50C93.75 61.6032 89.1406 72.7312 80.9359 80.9359C72.7312 89.1406 61.6032 93.75 50 93.75Z" fill="#8B8B8B"/>
<path d="M46.875 25C47.7038 25 48.4987 25.3292 49.0847 25.9153C49.6708 26.5013 50 27.2962 50 28.125V53.125C50 53.9538 49.6708 54.7487 49.0847 55.3347C48.4987 55.9208 47.7038 56.25 46.875 56.25C46.0462 56.25 45.2513 55.9208 44.6653 55.3347C44.0792 54.7487 43.75 53.9538 43.75 53.125V28.125C43.75 27.2962 44.0792 26.5013 44.6653 25.9153C45.2513 25.3292 46.0462 25 46.875 25Z" fill="#8B8B8B"/>
<path d="M46.875 50H71.875C73.9583 50 75 51.0417 75 53.125C75 55.2083 73.9583 56.25 71.875 56.25H46.875C44.7917 56.25 43.75 55.2083 43.75 53.125C43.75 51.0417 44.7917 50 46.875 50Z" fill="#8B8B8B"/>
</svg>
