<svg width="38" height="39" viewBox="0 0 38 39" fill="none" xmlns="http://www.w3.org/2000/svg">
<path d="M35.625 0.426392C36.9387 0.426392 38 1.48582 38 2.79219C38 4.09855 36.9387 5.15798 35.625 5.15798V33.5475C36.9387 33.5475 38 34.6047 38 35.9133C38 37.2219 36.9387 38.2791 35.625 38.2791H22.5625V33.5475H15.4375V38.2791H2.375C1.06355 38.2791 0 37.2219 0 35.9133C0 34.6047 1.06355 33.5475 2.375 33.5475V5.15798C1.06355 5.15798 0 4.09855 0 2.79219C0 1.48582 1.06355 0.426392 2.375 0.426392H35.625ZM8.3125 7.52378C7.65938 7.52378 7.125 8.05608 7.125 8.70667V11.0725C7.125 11.7231 7.65938 12.2554 8.3125 12.2554H10.6875C11.3406 12.2554 11.875 11.7231 11.875 11.0725V8.70667C11.875 8.05608 11.3406 7.52378 10.6875 7.52378H8.3125ZM16.625 11.0725C16.625 11.7231 17.1594 12.2554 17.8125 12.2554H20.1875C20.8406 12.2554 21.375 11.7231 21.375 11.0725V8.70667C21.375 8.05608 20.8406 7.52378 20.1875 7.52378H17.8125C17.1594 7.52378 16.625 8.05608 16.625 8.70667V11.0725ZM27.3125 7.52378C26.6594 7.52378 26.125 8.05608 26.125 8.70667V11.0725C26.125 11.7231 26.6594 12.2554 27.3125 12.2554H29.6875C30.3406 12.2554 30.875 11.7231 30.875 11.0725V8.70667C30.875 8.05608 30.3406 7.52378 29.6875 7.52378H27.3125ZM7.125 18.1699C7.125 18.8204 7.65938 19.3527 8.3125 19.3527H10.6875C11.3406 19.3527 11.875 18.8204 11.875 18.1699V15.8041C11.875 15.1535 11.3406 14.6212 10.6875 14.6212H8.3125C7.65938 14.6212 7.125 15.1535 7.125 15.8041V18.1699ZM17.8125 14.6212C17.1594 14.6212 16.625 15.1535 16.625 15.8041V18.1699C16.625 18.8204 17.1594 19.3527 17.8125 19.3527H20.1875C20.8406 19.3527 21.375 18.8204 21.375 18.1699V15.8041C21.375 15.1535 20.8406 14.6212 20.1875 14.6212H17.8125ZM26.125 18.1699C26.125 18.8204 26.6594 19.3527 27.3125 19.3527H29.6875C30.3406 19.3527 30.875 18.8204 30.875 18.1699V15.8041C30.875 15.1535 30.3406 14.6212 29.6875 14.6212H27.3125C26.6594 14.6212 26.125 15.1535 26.125 15.8041V18.1699ZM19 21.7185C15.675 21.7185 12.877 23.9882 12.0309 27.0564C11.8527 28.0101 12.6691 28.8159 13.6562 28.8159H24.3438C25.3309 28.8159 26.1473 28.0101 25.9023 27.0564C25.123 23.9882 22.325 21.7185 19 21.7185Z" fill="#FFE248"/>
</svg>
