<svg width="150" height="150" viewBox="0 0 150 150" fill="none" xmlns="http://www.w3.org/2000/svg">
<path d="M103.125 16.8469L84.375 35.4516L73.6875 24.7547L66.9375 31.5047L70.4531 35.0204L46.4344 59.0391C43.7053 61.783 42.1734 65.4957 42.1734 69.3657C42.1734 73.2357 43.7053 76.9483 46.4344 79.6922L55.0781 88.336L20.0625 123.197L26.8125 129.947L61.6687 94.9313L70.3125 103.566C73.0564 106.295 76.7691 107.827 80.6391 107.827C84.5091 107.827 88.2217 106.295 90.9656 103.566L114.989 79.5422L118.505 83.0579L125.255 76.3079L114.548 65.625L133.148 46.875L126.562 40.2844L107.812 58.8938L91.1109 42.1875L109.72 23.4375L103.125 16.8469ZM77.0484 41.5969L108.398 72.9469L84.375 96.9797C82.5562 98.7938 78.7219 98.7938 76.9031 96.9797L53.0297 73.1016C51.2109 71.2829 51.2109 67.4485 53.0297 65.6297L77.0484 41.6063V41.5969Z" fill="#8B8B8B"/>
</svg>
