<svg width="150" height="150" viewBox="0 0 150 150" fill="none" xmlns="http://www.w3.org/2000/svg">
<path d="M131.25 68.75C131.25 53.8316 125.324 39.5242 114.775 28.9752C104.226 18.4263 89.9184 12.5 75 12.5C60.0816 12.5 45.7742 18.4263 35.2252 28.9752C24.6763 39.5242 18.75 53.8316 18.75 68.75C18.75 93.25 34.4375 114 56.25 121.75V137.5H68.75V124.625C72.9013 125.131 77.0987 125.131 81.25 124.625V137.5H93.75V121.75C115.562 114 131.25 93.25 131.25 68.75ZM75 112.5C50.875 112.5 31.25 92.875 31.25 68.75C31.25 44.625 50.875 25 75 25C99.125 25 118.75 44.625 118.75 68.75C118.75 92.875 99.125 112.5 75 112.5Z" fill="#8B8B8B"/>
<path d="M50 43.75H100V56.25H50V43.75ZM79.6875 62.5L60.9375 81.25L68.75 89.0625L60.9375 96.875L70.3125 106.25L89.0625 87.5L81.25 79.6875L89.0625 71.875L79.6875 62.5Z" fill="#8B8B8B"/>
</svg>
