<svg width="33" height="33" viewBox="0 0 33 33" fill="none" xmlns="http://www.w3.org/2000/svg">
<path d="M16.5 28.875C18.1251 28.875 19.7343 28.5549 21.2357 27.933C22.7371 27.3111 24.1013 26.3996 25.2504 25.2504C26.3996 24.1013 27.3111 22.7371 27.933 21.2357C28.5549 19.7343 28.875 18.1251 28.875 16.5C28.875 14.8749 28.5549 13.2657 27.933 11.7643C27.3111 10.2629 26.3996 8.89868 25.2504 7.74956C24.1013 6.60043 22.7371 5.6889 21.2357 5.06699C19.7343 4.4451 18.1251 4.125 16.5 4.125C13.218 4.125 10.0703 5.4288 7.74956 7.74956C5.4288 10.0703 4.125 13.218 4.125 16.5C4.125 19.782 5.4288 22.9297 7.74956 25.2504C10.0703 27.5712 13.218 28.875 16.5 28.875ZM16.5 30.9375C12.6709 30.9375 8.9987 29.4164 6.29115 26.7088C3.5836 24.0013 2.0625 20.3291 2.0625 16.5C2.0625 12.6709 3.5836 8.9987 6.29115 6.29115C8.9987 3.5836 12.6709 2.0625 16.5 2.0625C20.3291 2.0625 24.0013 3.5836 26.7088 6.29115C29.4164 8.9987 30.9375 12.6709 30.9375 16.5C30.9375 20.3291 29.4164 24.0013 26.7088 26.7088C24.0013 29.4164 20.3291 30.9375 16.5 30.9375Z" fill="#8B8B8B"/>
<path d="M15.4688 8.25C15.7423 8.25 16.0046 8.35864 16.198 8.55205C16.3914 8.74543 16.5 9.00775 16.5 9.28125V17.5312C16.5 17.8048 16.3914 18.0671 16.198 18.2605C16.0046 18.4539 15.7423 18.5625 15.4688 18.5625C15.1952 18.5625 14.9329 18.4539 14.7395 18.2605C14.5461 18.0671 14.4375 17.8048 14.4375 17.5312V9.28125C14.4375 9.00775 14.5461 8.74543 14.7395 8.55205C14.9329 8.35864 15.1952 8.25 15.4688 8.25Z" fill="#8B8B8B"/>
<path d="M15.4688 16.5H23.7188C24.4062 16.5 24.75 16.8438 24.75 17.5312C24.75 18.2187 24.4062 18.5625 23.7188 18.5625H15.4688C14.7813 18.5625 14.4375 18.2187 14.4375 17.5312C14.4375 16.8438 14.7813 16.5 15.4688 16.5Z" fill="#8B8B8B"/>
</svg>
