<svg width="26" height="25" viewBox="0 0 26 25" fill="none" xmlns="http://www.w3.org/2000/svg">
<path d="M17.8381 17.0827L18.4454 16.4706L17.0352 15.0332L16.4281 15.6452L17.8381 17.0827ZM20.4847 16.2143L23.0319 17.6178L23.987 15.837L21.4399 14.4335L20.4847 16.2143ZM23.5222 20.4072L21.6282 22.3159L23.0383 23.7533L24.9323 21.8446L23.5222 20.4072ZM20.4742 22.9305C18.5411 23.1131 13.5399 22.9504 8.12505 17.4932L6.71497 18.9306C12.624 24.8857 18.248 25.1766 20.6598 24.9487L20.4742 22.9305ZM8.12505 17.4932C2.96359 12.2914 2.10859 7.91627 2.00216 6.0182L0.00553127 6.13321C0.139468 8.52213 1.19815 13.3707 6.71497 18.9306L8.12505 17.4932ZM9.95868 9.1416L10.3411 8.75622L8.93102 7.31885L8.54864 7.70422L9.95868 9.1416ZM10.6454 3.84386L8.96429 1.56769L7.36335 2.78245L9.04448 5.05864L10.6454 3.84386ZM3.31 1.07227L1.21735 3.18127L2.62744 4.61865L4.72009 2.50965L3.31 1.07227ZM9.25367 8.42291C8.54864 7.70422 8.54768 7.70518 8.54672 7.70616C8.5464 7.70648 8.54544 7.70747 8.54478 7.70813C8.54348 7.70947 8.54214 7.71082 8.5408 7.71221C8.53809 7.71501 8.53529 7.71791 8.53241 7.72094C8.52664 7.72701 8.52053 7.73357 8.51411 7.74065C8.50124 7.7548 8.48712 7.77099 8.472 7.78928C8.44178 7.82583 8.40753 7.87084 8.37153 7.92469C8.29936 8.03265 8.22073 8.17539 8.154 8.3549C8.01783 8.72118 7.94484 9.20402 8.03635 9.80191C8.21533 10.9712 9.00982 12.5157 11.045 14.5668L12.455 13.1293C10.5505 11.2099 10.0968 10.0418 10.0125 9.49116C9.97241 9.2291 10.014 9.10012 10.0255 9.06958C10.0324 9.05068 10.0357 9.04875 10.0272 9.06166C10.0229 9.06797 10.0159 9.07785 10.0048 9.09116C9.99935 9.09782 9.99281 9.10536 9.98521 9.11376C9.98135 9.11797 9.97735 9.12239 9.97281 9.12702C9.97068 9.12934 9.96842 9.13171 9.96602 9.13414C9.96482 9.13536 9.96362 9.13659 9.96241 9.13783C9.96188 9.13845 9.96095 9.1394 9.96055 9.13971C9.95962 9.14066 9.95868 9.1416 9.25367 8.42291ZM11.045 14.5668C13.0809 16.6185 14.6118 17.417 15.7673 17.5967C16.3578 17.6885 16.8339 17.6152 17.1951 17.4789C17.3721 17.412 17.5132 17.3332 17.6199 17.2608C17.6732 17.2245 17.7177 17.1901 17.7539 17.1597C17.772 17.1445 17.788 17.1304 17.802 17.1174C17.8091 17.1109 17.8156 17.1048 17.8216 17.099C17.8246 17.096 17.8274 17.0932 17.8302 17.0905C17.8316 17.0891 17.8329 17.0878 17.8342 17.0864C17.8349 17.0858 17.836 17.0848 17.8362 17.0845C17.8372 17.0836 17.8381 17.0827 17.1331 16.3639C16.4281 15.6452 16.429 15.6443 16.43 15.6434C16.4302 15.6431 16.4312 15.6421 16.4318 15.6415C16.433 15.6402 16.4342 15.639 16.4354 15.6378C16.438 15.6355 16.4402 15.6332 16.4425 15.6309C16.4471 15.6265 16.4515 15.6224 16.4557 15.6185C16.4639 15.6109 16.4714 15.6043 16.4781 15.5989C16.4911 15.5878 16.5009 15.5808 16.5069 15.5766C16.5193 15.5682 16.5167 15.572 16.497 15.5794C16.4643 15.5917 16.3336 15.634 16.0706 15.5931C15.5196 15.5075 14.359 15.0481 12.455 13.1293L11.045 14.5668ZM8.96429 1.56769C7.60531 -0.272261 4.93299 -0.563404 3.31 1.07227L4.72009 2.50965C5.42894 1.79524 6.68789 1.86796 7.36335 2.78245L8.96429 1.56769ZM2.00216 6.0182C1.97594 5.55049 2.18757 5.06193 2.62744 4.61865L1.21735 3.18127C0.500976 3.90324 -0.0622105 4.92525 0.00553127 6.13321L2.00216 6.0182ZM21.6282 22.3159C21.2619 22.6852 20.8691 22.8932 20.4742 22.9305L20.6598 24.9487C21.6392 24.8562 22.4417 24.3547 23.0383 23.7533L21.6282 22.3159ZM10.3411 8.75622C11.6536 7.43338 11.7512 5.34098 10.6454 3.84386L9.04448 5.05864C9.58244 5.78698 9.50245 6.74296 8.93102 7.31885L10.3411 8.75622ZM23.0319 17.6178C24.1222 18.2186 24.2921 19.6313 23.5222 20.4072L24.9323 21.8446C26.7192 20.0437 26.1682 17.0387 23.987 15.837L23.0319 17.6178ZM18.4454 16.4706C18.9574 15.9547 19.7814 15.8269 20.4847 16.2143L21.4399 14.4335C19.9952 13.6374 18.2022 13.8573 17.0352 15.0332L18.4454 16.4706Z" fill="#757575"/>
</svg>
