<svg width="30" height="30" viewBox="0 0 30 30" fill="none" xmlns="http://www.w3.org/2000/svg">
<path d="M26.7857 0H3.21429C1.43973 0 0 1.43973 0 3.21429V26.7857C0 28.5603 1.43973 30 3.21429 30H26.7857C28.5603 30 30 28.5603 30 26.7857V3.21429C30 1.43973 28.5603 0 26.7857 0ZM10.9821 21.6964C7.27902 21.6964 4.28571 18.7031 4.28571 15C4.28571 11.2969 7.27902 8.30357 10.9821 8.30357C12.7902 8.30357 14.2969 8.95982 15.4687 10.058L13.654 11.8058C13.1585 11.3304 12.2946 10.7746 10.9888 10.7746C8.70536 10.7746 6.84375 12.6629 6.84375 15.0067C6.84375 17.3438 8.70536 19.2388 10.9888 19.2388C13.6406 19.2388 14.6317 17.3304 14.7924 16.3527H10.9821V14.0491H17.3036C17.3705 14.3839 17.4107 14.7254 17.4107 15.1607C17.4107 18.9844 14.846 21.6964 10.9821 21.6964ZM25.7143 16.2188H23.7723V18.1607H21.817V16.2188H19.875V14.2634H21.817V12.3214H23.7723V14.2634H25.7143V16.2188Z" fill="#D9D9D9"/>
</svg>
