<svg width="88" height="126" viewBox="0 0 88 126" fill="none" xmlns="http://www.w3.org/2000/svg">
<path d="M47.125 25.5L28.375 53.625H40.875V72.375L59.625 44.25H47.125V25.5Z" fill="#8B8B8B"/>
<path fill-rule="evenodd" clip-rule="evenodd" d="M87.4688 48.2281C86.5204 56.2762 83.2854 63.8838 78.1469 70.15C75.1406 73.8219 67.5 84.3125 65.875 91.125H22.125C20.5 84.3063 12.85 73.8156 9.84375 70.1406C4.70769 63.8715 1.47594 56.2617 0.531253 48.2125C-0.400113 40.1805 1.00159 32.0502 4.56875 24.7938C8.16945 17.482 13.7665 11.3389 20.7125 7.07502C27.7188 2.7695 35.7828 0.493331 44.0063 0.500015C52.25 0.500015 60.325 2.78126 67.3 7.08439C74.2443 11.3499 79.8391 17.494 83.4375 24.8063C87.0031 32.0643 88.4027 40.1957 87.4688 48.2281ZM61.4469 84.875H26.55C25.2188 81.8031 23.4406 78.725 21.7844 76.1094C19.605 72.672 17.2346 69.3595 14.6844 66.1875C10.3038 60.8426 7.547 54.3541 6.74063 47.4906C5.94678 40.6505 7.1402 33.7265 10.1781 27.5469C13.2597 21.2942 18.0485 16.0416 23.9906 12.3969C30.0113 8.69835 36.9403 6.7435 44.0063 6.75001C51.1 6.75001 58.0375 8.71564 64.0219 12.4063C69.9618 16.0518 74.7484 21.3043 77.8281 27.5563C80.8645 33.7375 82.0558 40.6626 81.2594 47.5031C80.4501 54.3651 77.6911 60.8513 73.3094 66.1938C70.7579 69.3641 68.3885 72.6767 66.2125 76.1156C64.5563 78.7313 62.7813 81.8031 61.45 84.875H61.4469Z" fill="#8B8B8B"/>
<path d="M22.125 100.5C22.125 99.6712 22.4542 98.8763 23.0403 98.2903C23.6263 97.7042 24.4212 97.375 25.25 97.375H62.75C63.5788 97.375 64.3737 97.7042 64.9597 98.2903C65.5458 98.8763 65.875 99.6712 65.875 100.5C65.875 101.329 65.5458 102.124 64.9597 102.71C64.3737 103.296 63.5788 103.625 62.75 103.625H25.25C24.4212 103.625 23.6263 103.296 23.0403 102.71C22.4542 102.124 22.125 101.329 22.125 100.5Z" fill="#8B8B8B"/>
<path fill-rule="evenodd" clip-rule="evenodd" d="M22.125 109.875H65.875V119.25C65.875 120.908 65.2165 122.497 64.0444 123.669C62.8723 124.842 61.2826 125.5 59.625 125.5H28.375C26.7174 125.5 25.1277 124.842 23.9556 123.669C22.7835 122.497 22.125 120.908 22.125 119.25V109.875ZM28.375 116.125H59.625V119.25H28.375V116.125Z" fill="#8B8B8B"/>
</svg>
