<svg width="15" height="20" viewBox="0 0 15 20" fill="none" xmlns="http://www.w3.org/2000/svg">
<path d="M13.4615 0H1.53846C1.13058 0.000391142 0.739529 0.138913 0.451111 0.385177C0.162693 0.63144 0.000458098 0.965332 0 1.3136V18.3904C0.000458098 18.7387 0.162693 19.0726 0.451111 19.3188C0.739529 19.5651 1.13058 19.7036 1.53846 19.704H13.4615C13.8694 19.7036 14.2605 19.5651 14.5489 19.3188C14.8373 19.0726 14.9995 18.7387 15 18.3904V1.3136C14.9995 0.965332 14.8373 0.63144 14.5489 0.385177C14.2605 0.138913 13.8694 0.000391142 13.4615 0ZM13.4615 1.3136V2.6272H1.53846V1.3136H13.4615ZM13.4615 3.9408L13.4621 13.136H1.53846V3.9408H13.4615ZM13.4615 18.3904H1.53846V14.4496H13.4623V18.3904H13.4615Z" fill="white"/>
</svg>
