<svg width="36" height="36" viewBox="0 0 36 36" fill="none" xmlns="http://www.w3.org/2000/svg">
<g clip-path="url(#clip0_4_4)">
<path d="M33 18.9999C32.8684 19.0007 32.7379 18.9755 32.6161 18.9257C32.4943 18.876 32.3834 18.8026 32.29 18.7099L18 4.40995L3.71 18.7099C3.5187 18.8738 3.27262 18.9594 3.02094 18.9497C2.76927 18.9399 2.53053 18.8356 2.35243 18.6575C2.17434 18.4794 2.07001 18.2407 2.06029 17.989C2.05056 17.7373 2.13617 17.4912 2.3 17.2999L17.3 2.29995C17.4874 2.1137 17.7408 2.00916 18.005 2.00916C18.2692 2.00916 18.5226 2.1137 18.71 2.29995L33.71 17.2999C33.8476 17.4403 33.9408 17.6182 33.9779 17.8112C34.015 18.0042 33.9944 18.2039 33.9186 18.3853C33.8429 18.5667 33.7153 18.7218 33.5519 18.8311C33.3885 18.9404 33.1966 18.9991 33 18.9999Z" fill="#FFE248"/>
<path d="M18 7.79004L6 19.83V32C6 32.5305 6.21071 33.0392 6.58579 33.4143C6.96086 33.7893 7.46957 34 8 34H15V24H21V34H28C28.5304 34 29.0391 33.7893 29.4142 33.4143C29.7893 33.0392 30 32.5305 30 32V19.76L18 7.79004Z" fill="#FFE248"/>
</g>
<defs>
<clipPath id="clip0_4_4">
<rect width="36" height="36" fill="white"/>
</clipPath>
</defs>
</svg>
