<svg width="100" height="100" viewBox="0 0 100 100" fill="none" xmlns="http://www.w3.org/2000/svg">
<g clip-path="url(#clip0_8_583)">
<path d="M88.8889 41.6666H86.1111V25C86.1111 24.2633 85.8185 23.5567 85.2975 23.0358C84.7766 22.5149 84.0701 22.2222 83.3333 22.2222H16.6667C16.0089 22.2329 15.3687 22.0099 14.86 21.5928C14.3514 21.1756 14.0072 20.5915 13.8889 19.9444V18.9444C14.0072 18.2973 14.3514 17.7132 14.86 17.2961C15.3687 16.879 16.0089 16.6559 16.6667 16.6666H82.1667C82.9034 16.6666 83.6099 16.374 84.1309 15.853C84.6518 15.3321 84.9445 14.6256 84.9445 13.8889C84.9445 13.1521 84.6518 12.4456 84.1309 11.9247C83.6099 11.4037 82.9034 11.1111 82.1667 11.1111H16.6667C14.4565 11.1111 12.3369 11.9891 10.7741 13.5519C9.21132 15.1147 8.33335 17.2343 8.33335 19.4444C8.31385 19.7775 8.31385 20.1114 8.33335 20.4444V77.5833C8.34425 79.0789 8.64964 80.5578 9.23209 81.9353C9.81453 83.3129 10.6626 84.5623 11.7279 85.6121C12.7932 86.662 14.0549 87.4917 15.4408 88.0539C16.8268 88.6161 18.3099 88.8998 19.8056 88.8889H83.3333C84.0701 88.8889 84.7766 88.5962 85.2975 88.0753C85.8185 87.5543 86.1111 86.8478 86.1111 86.1111V69.4444H88.8889C89.6256 69.4444 90.3322 69.1518 90.8531 68.6308C91.374 68.1099 91.6667 67.4034 91.6667 66.6666V44.4444C91.6667 43.7077 91.374 43.0012 90.8531 42.4802C90.3322 41.9593 89.6256 41.6666 88.8889 41.6666ZM80.5556 83.3333H19.8056C18.2606 83.3482 16.7722 82.7525 15.6642 81.6757C14.5561 80.5989 13.9181 79.1281 13.8889 77.5833V27.4444C14.7906 27.7057 15.7288 27.8183 16.6667 27.7778H80.5556V41.6666H61.1111C57.4276 41.6666 53.8949 43.1299 51.2902 45.7346C48.6855 48.3393 47.2222 51.872 47.2222 55.5555C47.2222 59.2391 48.6855 62.7718 51.2902 65.3765C53.8949 67.9811 57.4276 69.4444 61.1111 69.4444H80.5556V83.3333ZM86.1111 63.8889H61.1111C58.901 63.8889 56.7814 63.0109 55.2186 61.4481C53.6558 59.8853 52.7778 57.7657 52.7778 55.5555C52.7778 53.3454 53.6558 51.2258 55.2186 49.663C56.7814 48.1002 58.901 47.2222 61.1111 47.2222H86.1111V63.8889Z" fill="#8B8B8B"/>
<path d="M63.9167 59.7222C66.2179 59.7222 68.0833 57.8568 68.0833 55.5556C68.0833 53.2544 66.2179 51.3889 63.9167 51.3889C61.6155 51.3889 59.75 53.2544 59.75 55.5556C59.75 57.8568 61.6155 59.7222 63.9167 59.7222Z" fill="#8B8B8B"/>
</g>
<defs>
<clipPath id="clip0_8_583">
<rect width="100" height="100" fill="white"/>
</clipPath>
</defs>
</svg>
